<svg xmlns="http://www.w3.org/2000/svg" width="171" height="51" viewBox="0 0 171 51" fill="none">
  <g clip-path="url(#clip0_43_110)">
    <path fill-rule="evenodd" clip-rule="evenodd" d="M106.079 39.8845C96.1795 47.1363 81.7802 50.9999 69.3607 50.9999C51.9614 50.9999 36.3621 44.6398 24.4826 34.0594C23.5826 33.2272 24.3626 32.0978 25.5026 32.7517C38.282 40.1223 54.0613 44.5209 70.3806 44.5209C81.3602 44.5209 93.4797 42.2621 104.639 37.5663C106.319 36.9125 107.699 38.6957 106.079 39.8845Z" fill="#196246"/>
    <path fill-rule="evenodd" clip-rule="evenodd" d="M110.219 35.1889C108.959 33.584 101.819 34.4162 98.6394 34.8323C97.6795 34.9511 97.4995 34.119 98.3994 33.5246C104.099 29.542 113.399 30.7309 114.479 32.0385C115.559 33.3462 114.179 42.619 108.839 47.0176C107.999 47.6714 107.219 47.3148 107.579 46.4232C108.779 43.4511 111.479 36.8532 110.219 35.1889Z" fill="#196246"/>
    <path fill-rule="evenodd" clip-rule="evenodd" d="M98.8195 5.58741V1.72377C98.8195 1.12937 99.2394 0.77272 99.7794 0.77272H117.179C117.719 0.77272 118.199 1.18881 118.199 1.72377V4.993C118.199 5.52797 117.719 6.24126 116.879 7.43007L107.879 20.1503C111.239 20.0909 114.779 20.5664 117.779 22.2308C118.439 22.5874 118.619 23.1818 118.679 23.7168V27.8182C118.679 28.4126 118.079 29.0664 117.419 28.7098C112.079 25.9161 104.939 25.6189 99.0594 28.7692C98.4595 29.0664 97.7995 28.472 97.7995 27.8776V23.9545C97.7995 23.3601 97.7995 22.2902 98.4595 21.3392L108.899 6.53846H99.8394C99.2994 6.53846 98.8195 6.12237 98.8195 5.58741ZM35.4022 29.5419H30.1224C29.6424 29.4825 29.2224 29.1259 29.1624 28.6503V1.78322C29.1624 1.24825 29.6424 0.832164 30.1824 0.832164H35.1022C35.6421 0.832164 36.0021 1.24825 36.0621 1.72377V5.23076H36.1821C37.4421 1.84265 39.902 0.237759 43.1418 0.237759C46.4417 0.237759 48.5416 1.84265 49.9815 5.23076C51.2415 1.84265 54.1814 0.237759 57.3012 0.237759C59.5211 0.237759 61.921 1.12937 63.421 3.20979C65.1009 5.46853 64.7409 8.73777 64.7409 11.6504V28.6503C64.7409 29.1853 64.2609 29.6014 63.721 29.6014H58.5012C57.9612 29.542 57.5412 29.1259 57.5412 28.6503V14.3846C57.5412 13.2552 57.6612 10.4021 57.4212 9.33216C57.0012 7.54894 55.8613 7.01398 54.3013 7.01398C53.0414 7.01398 51.6615 7.84615 51.1215 9.21329C50.5815 10.5804 50.6415 12.8391 50.6415 14.3846V28.6503C50.6415 29.1853 50.1615 29.6014 49.6215 29.6014H44.3418C43.8018 29.542 43.3818 29.1259 43.3818 28.6503V14.3846C43.3818 11.4126 43.8618 6.95453 40.1419 6.95453C36.3621 6.95453 36.4821 11.2343 36.4821 14.3846V28.6503C36.4221 29.1259 36.0021 29.5419 35.4022 29.5419ZM133.198 0.237759C141.058 0.237759 145.317 6.8951 145.317 15.3951C145.317 23.5979 140.638 30.1364 133.198 30.1364C125.518 30.1364 121.318 23.479 121.318 15.1573C121.258 6.77622 125.518 0.237759 133.198 0.237759ZM133.198 5.76572C129.298 5.76572 129.058 11.0559 129.058 14.3252C129.058 17.5944 128.998 24.6084 133.138 24.6084C137.218 24.6084 137.458 18.9615 137.458 15.514C137.458 13.2552 137.338 10.521 136.678 8.38112C136.078 6.47902 134.878 5.76572 133.198 5.76572ZM155.457 29.5419H150.177C149.637 29.4825 149.217 29.0664 149.217 28.5909V1.66433C149.277 1.1888 149.697 0.77272 150.237 0.77272H155.157C155.637 0.77272 155.997 1.12937 156.117 1.54546V5.64685H156.237C157.737 1.96154 159.777 0.237759 163.437 0.237759C165.777 0.237759 168.117 1.06992 169.616 3.3881C170.996 5.52796 170.996 9.15384 170.996 11.7692V28.7098C170.936 29.1853 170.516 29.5419 169.976 29.5419H164.697C164.217 29.4825 163.797 29.1259 163.737 28.7098V14.0874C163.737 11.1154 164.097 6.83566 160.437 6.83566C159.177 6.83566 157.977 7.66784 157.377 8.97553C156.657 10.6399 156.537 12.2447 156.537 14.0874V28.5909C156.477 29.1259 155.997 29.5419 155.457 29.5419ZM84.96 16.7028C84.96 18.7238 85.02 20.4476 84.0001 22.2902C83.1601 23.7762 81.8402 24.6678 80.3402 24.6678C78.3003 24.6678 77.1004 23.1224 77.1004 20.8636C77.1004 16.4056 81.1202 15.5734 84.96 15.5734V16.7028ZM90.2998 29.4825C89.9398 29.7797 89.4598 29.8392 89.0399 29.6014C87.2999 28.1748 86.9399 27.4615 85.98 26.0944C83.1001 29.007 81.0002 29.8986 77.2804 29.8986C72.8405 29.8986 69.3607 27.1643 69.3607 21.7552C69.3607 17.4755 71.7006 14.6224 75.0005 13.1958C77.8803 11.9475 81.9002 11.7098 84.96 11.3532V10.6993C84.96 9.45105 85.08 7.96504 84.3001 6.89511C83.6401 5.94406 82.4401 5.52796 81.3602 5.52796C79.3203 5.52796 77.5204 6.53847 77.1004 8.67833C76.9804 9.15385 76.6804 9.62936 76.2004 9.62936L71.1006 9.0944C70.6806 8.97552 70.2007 8.67832 70.3207 8.02448C71.5206 1.84266 77.1004 0 82.1402 0C84.72 0 88.0799 0.653843 90.1198 2.61538C92.6997 4.993 92.4597 8.2028 92.4597 11.6504V19.7937C92.4597 22.2308 93.4797 23.3007 94.4396 24.6678C94.7996 25.1434 94.8596 25.7378 94.4396 26.035C93.2997 26.9266 91.3798 28.5909 90.2998 29.4825ZM15.663 16.7028C15.663 18.7238 15.723 20.4476 14.703 22.2902C13.8631 23.7762 12.5431 24.6678 11.0432 24.6678C9.00327 24.6678 7.80333 23.1224 7.80333 20.8636C7.80333 16.4056 11.8232 15.5734 15.663 15.5734V16.7028ZM20.9428 29.4825C20.5828 29.7797 20.1028 29.8392 19.6828 29.6014C17.9429 28.1748 17.5829 27.4615 16.623 26.0944C13.7431 29.007 11.6432 29.8986 7.92332 29.8986C3.48351 29.8986 0.00366211 27.1643 0.00366211 21.7552C0.00366211 17.4755 2.34356 14.6224 5.64342 13.1958C8.5233 11.9475 12.5431 11.7098 15.603 11.3532V10.6993C15.603 9.45105 15.723 7.96504 14.943 6.89511C14.283 5.94406 13.0831 5.52796 12.0031 5.52796C9.96324 5.52796 8.16331 6.53847 7.74333 8.67833C7.62333 9.15385 7.32335 9.62936 6.84337 9.62936L1.74358 9.0944C1.3236 8.97552 0.84363 8.67832 0.963625 8.02448C2.16357 1.84266 7.74333 0 12.7831 0C15.363 0 18.7229 0.653843 20.7628 2.61538C23.3427 4.993 23.1027 8.2028 23.1027 11.6504V19.7937C23.1027 22.2308 24.1226 23.3007 25.0826 24.6678C25.4426 25.1434 25.5026 25.7378 25.0826 26.035C23.9426 26.9266 22.0227 28.5909 20.9428 29.4825Z" fill="#196246"/>
  </g>
  <defs>
    <clipPath id="clip0_43_110">
      <rect width="171" height="51" fill="#196246" transform="matrix(-1 0 0 -1 171 51)"/>
    </clipPath>
  </defs>
</svg>