<svg xmlns="http://www.w3.org/2000/svg" width="38" height="38" viewBox="0 0 38 38" fill="none">
  <path d="M17.1204 0.890381C16.4776 1.12608 16.2621 1.59394 16.263 2.24434C16.273 8.26627 16.2693 14.2891 16.2693 20.311C16.2693 21.3008 16.6559 21.68 17.6673 21.68C23.8194 21.68 29.9715 21.6765 36.1236 21.6862C36.7881 21.6871 37.2671 21.4762 37.507 20.8471C37.507 20.3987 37.507 19.9504 37.507 19.5029C37.4844 19.3779 37.4581 19.2539 37.4409 19.129C37.3277 18.3129 37.2652 17.487 37.0959 16.6824C36.1444 12.1731 33.861 8.42488 30.2594 5.46797C27.3332 3.06487 23.9606 1.60812 20.1716 1.09241C19.6129 1.01621 19.0525 0.957724 18.493 0.891267C18.0358 0.890381 17.5785 0.890381 17.1204 0.890381Z" fill="#FAFBFB"/>
  <path d="M16.2521 37.0893C16.2576 36.975 16.2684 36.8598 16.2684 36.7446C16.2694 34.3398 16.263 31.9349 16.2766 29.5291C16.2784 29.2278 16.1833 29.149 15.89 29.0896C12.1154 28.3285 9.75057 26.1026 8.76732 22.4616C8.7646 22.4501 8.75917 22.4394 8.75736 22.4279C8.70394 22.1896 8.72839 21.8475 8.57809 21.7394C8.40154 21.6127 8.07289 21.6809 7.81032 21.6809C5.52151 21.6783 3.2336 21.6792 0.944778 21.6792C0.803538 21.6792 0.662297 21.6792 0.521057 21.6792C0.976467 30.0377 8.10005 36.7092 16.2521 37.0893Z" fill="#FAFBFB"/>
  <path d="M18.4857 37.1096C20.2811 36.9962 22.0013 36.6267 23.6491 35.9674C27.124 34.5762 29.8474 32.3096 31.8139 29.1764C32.5156 28.0581 33.0633 26.869 33.4671 25.6187C33.7053 24.8806 33.2399 24.2346 32.4359 24.1929C31.9796 24.169 31.5215 24.1867 31.0633 24.1867C29.4861 24.1867 27.9081 24.1983 26.3309 24.1814C25.717 24.1752 25.2815 24.3861 24.9656 24.9169C23.9515 26.6235 22.5074 27.8676 20.6269 28.588C20.0049 28.8263 19.3331 28.938 18.6903 29.1267C18.5898 29.156 18.4495 29.2924 18.4486 29.3793C18.4377 31.925 18.4422 34.4708 18.4459 37.0166C18.4486 37.0378 18.4649 37.0591 18.4857 37.1096Z" fill="#FAFBFB"/>
  <path d="M0.492981 19.5543C0.659572 19.5543 0.778178 19.5543 0.896783 19.5543C3.34133 19.5543 5.78587 19.5481 8.22951 19.5623C8.54821 19.5641 8.65685 19.4702 8.70936 19.1671C9.09687 16.9297 10.2349 15.1283 12.0665 13.7468C12.3898 13.5032 12.7392 13.2905 13.0887 13.084C13.5115 12.8342 13.7071 12.4717 13.7071 11.9995C13.708 9.98358 13.7152 7.96859 13.7044 5.95272C13.6999 5.04978 13.0027 4.58458 12.1335 4.87345C8.08374 6.21766 4.94748 8.68013 2.7655 12.2768C1.52059 14.3281 0.784516 16.5567 0.55998 18.9403C0.541872 19.1263 0.519237 19.3124 0.492981 19.5543Z" fill="#FAFBFB"/>
</svg>