<svg width="18" height="18" viewBox="0 0 18 18" fill="none" xmlns="http://www.w3.org/2000/svg">
<g id="check 1">
<path id="Vector" d="M15.0975 3.10503C14.8584 3.11347 14.6391 3.24003 14.5125 3.44253L7.73999 13.8038L3.35249 10.0125C3.16406 9.81706 2.8814 9.74393 2.62124 9.8255C2.36249 9.90565 2.16984 10.125 2.12484 10.3922C2.07984 10.6608 2.18812 10.9308 2.40749 11.0925L7.42499 15.435C7.58249 15.5686 7.79062 15.6277 7.99452 15.5982C8.19984 15.5672 8.38124 15.4505 8.49374 15.2775L15.7275 4.23003C15.8822 4.00362 15.8948 3.71112 15.7612 3.47206C15.6276 3.2344 15.3703 3.09237 15.0975 3.10503Z" fill="#29A073"/>
</g>
</svg>
