<svg xmlns="http://www.w3.org/2000/svg" width="36" height="34" viewBox="0 0 36 34" fill="none">
  <path d="M13.9102 33.3265C15.6357 31.3075 16.3246 28.9918 15.9604 26.4085C15.6751 24.3866 14.7167 22.6853 13.2074 21.2778C10.6084 18.8539 5.62258 17.6512 1.25172 21.0575C0.613072 18.8887 0.539039 16.7218 0.879587 14.5443C1.53107 10.3728 3.49637 6.88919 6.77451 4.14749C13.1423 -1.17649 22.573 -1.24895 29.0078 3.95042C35.4763 9.17683 37.2047 18.1554 33.1171 25.2338C28.691 32.8976 19.9621 35.0838 13.9102 33.3265ZM19.4725 15.7065C19.4725 15.4485 19.4725 15.2466 19.4725 15.0447C19.4725 12.6054 19.4745 10.1661 19.4715 7.7258C19.4705 6.78099 18.8822 6.12889 18.0639 6.14628C17.2654 6.16367 16.7126 6.79934 16.7116 7.72387C16.7086 10.7448 16.7086 13.7666 16.7116 16.7875C16.7126 17.8685 17.2634 18.4066 18.3748 18.4095C20.4645 18.4143 22.5542 18.4114 24.6439 18.4105C24.7396 18.4105 24.8364 18.4124 24.9311 18.4037C25.7317 18.3293 26.3032 17.7265 26.2726 16.9904C26.244 16.2745 25.6576 15.72 24.866 15.7132C23.2945 15.6978 21.7221 15.7074 20.1496 15.7074C19.9443 15.7065 19.738 15.7065 19.4725 15.7065Z" fill="#FAFBFB"/>
  <path d="M6.99363 21.6594C10.404 21.6517 13.1758 24.3664 13.2123 27.7485C13.2479 31.0573 10.4554 33.8077 7.04989 33.8203C3.63948 33.8328 0.848969 31.0747 0.867724 27.7109C0.885492 24.4011 3.65429 21.6672 6.99363 21.6594ZM6.15361 27.8297C6.27799 27.878 6.23554 27.8732 6.21086 27.85C5.69165 27.3505 5.17639 26.8482 4.65816 26.3478C4.03235 25.744 3.19233 25.6831 2.67016 26.2019C2.07297 26.795 2.09468 27.6104 2.74222 28.2519C3.60296 29.1059 4.47062 29.9541 5.34321 30.7975C5.95126 31.3848 6.68763 31.4341 7.28087 30.8564C8.72006 29.4546 10.1355 28.0297 11.5402 26.5951C11.9409 26.1855 12.0397 25.6493 11.7929 25.1295C11.5461 24.6098 11.0486 24.3142 10.4879 24.3808C10.0911 24.4282 9.66174 24.6513 9.35476 24.916C8.27981 25.8435 7.25027 26.8231 6.15361 27.8297Z" fill="#FAFBFB"/>
</svg>