<svg xmlns="http://www.w3.org/2000/svg" width="32" height="40" viewBox="0 0 32 40" fill="none">
  <path d="M20.4648 2.90638C19.763 3.76614 18.8687 4.2588 17.9399 4.73505C16.9193 5.25863 15.8197 5.15526 14.7449 5.26249C8.16229 5.91552 3.32185 11.7792 4.04436 18.2283C4.7422 24.461 10.2124 29.0438 16.6222 28.7656C22.4852 28.5106 27.4224 23.9268 27.9988 18.2293C28.2594 15.6568 27.7373 13.2611 26.4048 11.0373C26.238 10.7601 26.2488 10.564 26.4966 10.4046C27.1352 9.99499 27.7856 9.60375 28.4351 9.21155C28.6651 9.07245 28.8072 9.17388 28.9355 9.38447C30.0084 11.1484 30.7428 13.0389 30.958 15.081C31.5798 20.9872 29.3876 25.6772 24.4879 29.1674C24.3991 29.2302 24.3182 29.3046 24.2165 29.3877C25.1492 30.1373 26.0642 30.8715 26.9901 31.6153C21.8061 34.9944 10.8441 35.234 5.04226 31.6269C5.97797 30.8754 6.89592 30.1373 7.8415 29.378C4.10161 26.8645 1.77516 23.4844 1.11187 19.1103C0.589721 15.6674 1.24906 12.411 3.09187 9.41828C6.87124 3.27733 14.1911 0.980155 20.4648 2.90638Z" fill="#FAFBFB"/>
  <path d="M27.604 33.1794C27.8143 33.8672 28.0719 34.6246 28.2722 35.3964C28.4164 35.9528 28.1429 36.4078 27.7531 36.7933C27.0463 37.4946 26.1491 37.8791 25.2253 38.2095C23.2186 38.9262 21.1271 39.2508 19.0108 39.4121C15.4358 39.6846 11.8765 39.5599 8.39424 38.6615C7.24434 38.365 6.14971 37.8453 5.05508 37.369C4.70468 37.2164 4.41153 36.9034 4.13911 36.6204C3.79167 36.26 3.63572 35.8079 3.77785 35.3133C3.99105 34.5743 4.23288 33.844 4.44114 33.1775C12.1756 36.6397 19.8567 36.6397 27.604 33.1794Z" fill="#FAFBFB"/>
  <path d="M30.3519 7.12014C25.547 8.00211 23.7023 9.83174 23.2048 14.3247C22.5168 10.0771 20.1015 7.69685 15.8444 7.12594C16.559 6.91728 17.2687 6.74533 17.9527 6.50286C20.1686 5.71556 21.9512 4.43559 22.8179 2.19348C23.0251 1.65831 23.1268 1.08546 23.2966 0.460449C23.947 4.44719 26.4018 6.53571 30.3519 7.12014Z" fill="#FAFBFB"/>
  <path d="M19.834 16.335C20.2121 18.3307 21.4508 19.4803 23.4693 19.9131C21.2959 20.2309 20.143 21.4886 19.7768 23.5559C19.306 21.4867 18.0169 20.2918 15.9027 19.9034C17.8619 19.3769 19.4303 18.4824 19.834 16.335Z" fill="#FAFBFB"/>
  <path d="M10.472 14.3151C10.1186 12.8245 9.2125 11.928 7.71121 11.674C8.28073 11.3861 8.90553 11.134 9.45729 10.7746C10.0367 10.3969 10.3486 9.80185 10.4966 9.09473C10.8332 10.5022 11.7334 11.3291 13.1725 11.6392C11.5745 11.872 10.7276 12.8032 10.472 14.3151Z" fill="#FAFBFB"/>
</svg>