<svg xmlns="http://www.w3.org/2000/svg" width="30" height="30" viewBox="0 0 30 30" fill="none">
  <path d="M0.243242 6.96351C0.243242 5.40892 0.241438 3.85522 0.244144 2.30063C0.245948 1.22452 0.918841 0.56066 2.01117 0.559777C5.20064 0.557129 8.39012 0.558011 11.5796 0.559777C12.6773 0.56066 13.362 1.21569 13.3638 2.28916C13.3701 5.4098 13.3692 8.53134 13.3638 11.652C13.362 12.7255 12.6827 13.3964 11.5904 13.3981C8.40095 13.4034 5.21147 13.4034 2.02199 13.3981C0.907116 13.3964 0.244144 12.7272 0.24234 11.6255C0.24234 10.0727 0.243242 8.5181 0.243242 6.96351Z" fill="#FAFBFB"/>
  <path d="M23.2115 0.559903C24.7999 0.559903 26.3883 0.558137 27.9768 0.560786C29.0763 0.562551 29.7555 1.22023 29.7564 2.29016C29.7591 5.41081 29.7582 8.53234 29.7564 11.653C29.7555 12.7265 29.0844 13.3974 27.9894 13.4C24.7999 13.4062 21.6104 13.4053 18.421 13.4C17.3232 13.3983 16.6377 12.7335 16.6359 11.6654C16.6305 8.5447 16.6305 5.42317 16.6359 2.30252C16.6377 1.2114 17.3205 0.562551 18.4471 0.560786C20.0346 0.558137 21.6231 0.559903 23.2115 0.559903Z" fill="#FAFBFB"/>
  <path d="M0.242887 22.9966C0.242887 21.442 0.241083 19.8883 0.243789 18.3338C0.245593 17.2824 0.91578 16.6026 1.98465 16.6008C5.19939 16.5938 8.41502 16.5929 11.6298 16.6008C12.6761 16.6035 13.3607 17.2806 13.3634 18.309C13.3706 21.4553 13.3715 24.6015 13.3625 27.7478C13.3598 28.7753 12.6644 29.4374 11.6171 29.4392C8.4024 29.4427 5.18676 29.4427 1.97202 29.4392C0.92931 29.4383 0.246495 28.7612 0.243789 27.7354C0.240181 26.1552 0.242887 24.5759 0.242887 22.9966Z" fill="#FAFBFB"/>
  <path d="M28.1049 21.3953C28.1049 22.5023 28.1049 23.5378 28.1049 24.6104C27.0252 24.6104 25.9563 24.6104 24.8513 24.6104C24.8513 25.6936 24.8513 26.7406 24.8513 27.8132C23.7464 27.8132 22.6784 27.8132 21.5653 27.8132C21.5653 26.7591 21.5653 25.7139 21.5653 24.6369C20.4631 24.6369 19.4059 24.6369 18.3172 24.6369C18.3172 23.5608 18.3172 22.5165 18.3172 21.4191C19.3789 21.4191 20.4441 21.4191 21.55 21.4191C21.55 20.3342 21.55 19.2996 21.55 18.2402C22.6577 18.2402 23.7256 18.2402 24.827 18.2402C24.827 19.2802 24.827 20.3148 24.827 21.3944C25.9247 21.3953 26.9927 21.3953 28.1049 21.3953Z" fill="#FAFBFB"/>
</svg>