<svg xmlns="http://www.w3.org/2000/svg" width="161" height="32" viewBox="0 0 161 32" fill="none">
  <g clip-path="url(#clip0_19_125)">
    <path d="M12.662 5.36081C10.7846 5.36081 10.2214 6.18685 10.2214 8.02669V11.068H15.2528L14.7647 16.0243H10.2214V31.0058H4.17624V16.0243H0.121094V11.1056H4.17624V8.13933C4.17624 3.10795 6.20381 0.479614 11.7984 0.479614C12.9624 0.479614 14.1639 0.55471 15.3279 0.7049V5.36081" fill="#5D616A"/>
    <path d="M15.6659 20.4175C15.6659 14.8605 18.2942 10.6552 23.8513 10.6552C26.8551 10.6552 28.6949 12.1946 29.5961 14.1471V11.1057H35.3784V31.0435H29.5585V28.0397C28.7325 29.9546 26.8176 31.4565 23.8137 31.4565C18.2942 31.4565 15.6284 27.2888 15.6284 21.6942M21.7111 21.7692C21.7111 24.7355 22.8 26.7255 25.616 26.7255C28.0942 26.7255 29.3332 24.9233 29.3332 22.0696V20.0421C29.3332 17.1884 28.0566 15.3862 25.616 15.3862C22.8 15.3862 21.7111 17.3386 21.7111 20.3424V21.7692Z" fill="#5D616A"/>
    <path d="M47.9193 10.6552C50.2472 10.6552 52.5001 11.1433 53.7016 12.0069L52.3499 16.2873C51.1108 15.6865 49.7216 15.3862 48.3323 15.3862C45.0657 15.3862 43.6388 17.2635 43.6388 20.4926V21.6566C43.6388 24.8857 45.0657 26.7631 48.3323 26.7631C49.7216 26.7631 51.1108 26.4252 52.3499 25.8244L53.7016 30.1048C52.5001 30.9309 50.2848 31.4565 47.9193 31.4565C40.8228 31.4565 37.6312 27.6642 37.6312 21.544V20.6053C37.6312 14.485 40.8228 10.6552 47.9193 10.6552Z" fill="#5D616A"/>
    <path d="M54.4901 21.8068V20.0421C54.4901 14.3724 57.7192 10.6552 64.29 10.6552C70.4854 10.6552 73.2264 14.4099 73.2264 19.967V23.1585H60.5353C60.6479 25.8995 61.887 27.101 65.2287 27.101C67.4065 27.101 69.5843 26.688 71.6494 25.8995L72.7383 30.0297C71.1613 30.8558 67.8946 31.4941 65.0035 31.4941C57.3437 31.4565 54.4901 27.6642 54.4901 21.8068ZM60.5353 19.1785H67.8195V18.6903C67.8195 16.5126 66.9559 14.7854 64.29 14.7854C61.5866 14.7854 60.5353 16.5126 60.5353 19.1785Z" fill="#5D616A"/>
    <path d="M95.6048 21.6942C95.6048 27.2513 92.9389 31.4566 87.3818 31.4566C84.378 31.4566 82.2754 29.9547 81.4493 28.0398V31.0436H75.7421V1.0806L81.7872 0.554932V13.8843C82.6508 12.1196 84.6033 10.6928 87.4194 10.6928C92.9389 10.6928 95.6423 14.8606 95.6423 20.4552M89.5596 20.305C89.5596 17.4889 88.4707 15.3862 85.5796 15.3862C83.1014 15.3862 81.7872 17.151 81.7872 20.0046V22.1073C81.7872 24.9609 83.139 26.7256 85.5796 26.7256C88.4707 26.7256 89.5596 24.623 89.5596 21.8069V20.305Z" fill="#5D616A"/>
    <path d="M97.5948 21.544V20.5302C97.5948 14.7854 100.861 10.6552 107.507 10.6552C114.153 10.6552 117.42 14.7854 117.42 20.5302V21.544C117.42 27.2887 114.153 31.419 107.507 31.419C100.861 31.419 97.5948 27.3263 97.5948 21.544ZM111.412 20.1172C111.412 17.4888 110.323 15.3862 107.507 15.3862C104.691 15.3862 103.602 17.4888 103.602 20.1172V21.9945C103.602 24.6229 104.691 26.7255 107.507 26.7255C110.323 26.7255 111.412 24.6229 111.412 21.9945V20.1172Z" fill="#5D616A"/>
    <path d="M119.485 21.544V20.5302C119.485 14.7854 122.752 10.6552 129.398 10.6552C136.044 10.6552 139.31 14.7854 139.31 20.5302V21.544C139.31 27.2887 136.044 31.419 129.398 31.419C122.752 31.419 119.485 27.3263 119.485 21.544ZM133.303 20.1172C133.303 17.4888 132.214 15.3862 129.398 15.3862C126.582 15.3862 125.493 17.4888 125.493 20.1172V21.9945C125.493 24.6229 126.582 26.7255 129.398 26.7255C132.214 26.7255 133.303 24.6229 133.303 21.9945V20.1172Z" fill="#5D616A"/>
    <path d="M147.608 20.6052L153.578 11.0681H159.961L153.729 20.9431L160.224 31.0434H153.804L147.608 21.2811V31.0434H141.601V1.08043L147.608 0.517212" fill="#5D616A"/>
  </g>
  <defs>
    <clipPath id="clip0_19_125">
      <rect width="160.103" height="31.06" fill="white" transform="translate(0.121094 0.469971)"/>
    </clipPath>
  </defs>
</svg>