<svg xmlns="http://www.w3.org/2000/svg" width="67" height="67" viewBox="0 0 67 67" fill="none">
  <g clip-path="url(#clip0_43_143)">
    <path fill-rule="evenodd" clip-rule="evenodd" d="M67.0001 33.5C67.0001 52.0015 52.0016 67 33.5001 67C14.9985 67 6.10352e-05 52.0015 6.10352e-05 33.5C6.10352e-05 14.9985 14.9985 0 33.5001 0C52.0016 0 67.0001 14.9985 67.0001 33.5ZM36.9717 10.2827H44.3928H44.3965V18.2912C43.9715 18.2937 42.7077 18.2928 41.5505 18.292C41.01 18.2916 40.4928 18.2912 40.0951 18.2912C40.0897 18.2912 40.0813 18.291 40.0701 18.2908C39.7586 18.2844 37.3123 18.2341 37.3123 20.6694C37.3282 21.6998 37.3123 25.2478 37.3123 25.2478H44.4254L43.849 33.2238H37.4786V56.7171H27.8271V33.3778H22.5747V25.2706H27.6694C27.6694 24.4544 27.6719 23.6692 27.6744 22.9008C27.6791 21.4119 27.6836 19.9857 27.6694 18.5186C27.6694 12.1349 32.5678 10.2827 36.9717 10.2827Z" fill="#196246"/>
  </g>
  <defs>
    <clipPath id="clip0_43_143">
      <rect width="67" height="67" fill="white"/>
    </clipPath>
  </defs>
</svg>