<svg xmlns="http://www.w3.org/2000/svg" width="171" height="56" viewBox="0 0 171 56" fill="none">
  <g clip-path="url(#clip0_43_124)">
    <path d="M21.0594 0.00488281H22.58C27.8592 0.119648 33.0523 2.2428 36.7822 6.00136C35.405 7.40723 33.9991 8.75572 32.6507 10.1616C30.5562 8.26797 28.0314 6.80472 25.277 6.28827C21.2028 5.42753 16.8131 6.2022 13.3988 8.52619C9.66894 10.965 7.14411 15.0965 6.59897 19.515C5.99646 23.876 7.23018 28.4666 10.0706 31.8522C12.7963 35.1517 16.9565 37.2175 21.2602 37.3609C25.277 37.5905 29.4659 36.3567 32.3924 33.545C34.6877 31.5653 35.7493 28.5527 36.0936 25.6262C31.3309 25.6262 26.5681 25.6549 21.8053 25.6262V19.7158H41.8606C42.8934 26.0566 41.4015 33.2007 36.5814 37.7339C33.3679 40.9473 28.9208 42.841 24.3876 43.2139C19.9978 43.6443 15.4646 42.8123 11.5626 40.6891C6.88589 38.193 3.15602 33.9754 1.31978 29.0118C-0.401697 24.4499 -0.430389 19.2854 1.17632 14.6948C2.63958 10.5059 5.45132 6.80472 9.06642 4.2225C12.5381 1.66898 16.7557 0.263104 21.0594 0.00488281Z" fill="#196246"/>
    <path d="M136.111 1.49683H142.251V42.468C140.214 42.468 138.148 42.4967 136.111 42.4393C136.14 28.8109 136.111 15.1539 136.111 1.49683Z" fill="#196246"/>
    <path d="M55.5176 15.6991C59.3049 14.9818 63.4077 15.7852 66.5351 18.0518C69.3755 20.0602 71.3552 23.2162 71.9577 26.6592C72.7324 30.6472 71.7569 35.0083 69.1747 38.1644C66.3916 41.6934 61.8297 43.587 57.3826 43.3001C53.3084 43.0706 49.349 41.0335 46.9389 37.7053C44.2133 34.0328 43.5534 28.9832 45.0453 24.6795C46.5373 20.0602 50.7549 16.5311 55.5176 15.6991ZM56.3784 21.1504C54.829 21.5521 53.3945 22.4415 52.3616 23.704C49.5785 27.0321 49.7507 32.4548 52.8206 35.5535C54.5708 37.3323 57.2104 38.1644 59.6492 37.6766C61.9158 37.2749 63.8955 35.7543 64.9857 33.7459C66.8794 30.3316 66.3342 25.6263 63.4364 22.958C61.5715 21.2365 58.8458 20.5192 56.3784 21.1504Z" fill="#196246"/>
    <path d="M85.9304 15.699C90.2627 14.867 94.9968 16.072 98.2389 19.1133C103.518 23.8473 104.092 32.7129 99.5874 38.1643C96.8617 41.6072 92.4433 43.5009 88.0822 43.3C83.922 43.1852 79.8191 41.1195 77.3517 37.7052C74.5686 33.9467 73.9661 28.7822 75.5441 24.3925C77.1221 19.9166 81.2537 16.5024 85.9304 15.699ZM86.7911 21.1503C85.2418 21.552 83.8072 22.4415 82.7743 23.6752C80.02 26.946 80.1347 32.2826 83.0899 35.4099C84.8401 37.2748 87.5658 38.193 90.0906 37.6765C92.3285 37.2462 94.3369 35.7542 95.4272 33.7458C97.2921 30.3029 96.747 25.5975 93.8205 22.9292C91.9555 21.2077 89.2299 20.5191 86.7911 21.1503Z" fill="#196246"/>
    <path d="M111.724 17.3633C115.023 15.2975 119.413 14.7237 122.971 16.5025C124.09 16.9903 125.008 17.8223 125.897 18.6544C125.926 17.8797 125.897 17.0763 125.926 16.273C127.848 16.3017 129.771 16.273 131.722 16.3017V41.6074C131.693 45.4233 130.717 49.4688 127.963 52.2519C124.951 55.3218 120.331 56.2686 116.171 55.6374C111.724 54.9775 107.851 51.7354 106.129 47.6326C107.851 46.8005 109.658 46.1406 111.437 45.3659C112.441 47.7186 114.478 49.727 117.032 50.1861C119.585 50.6451 122.54 50.0139 124.205 47.8908C125.983 45.7102 125.983 42.7264 125.897 40.0581C124.578 41.3492 123.057 42.4968 121.221 42.9272C117.233 44.0462 112.843 42.669 109.773 39.972C106.674 37.275 104.838 33.1148 105.01 28.9832C105.096 24.3066 107.736 19.802 111.724 17.3633ZM117.663 21.0357C115.913 21.3227 114.277 22.2982 113.158 23.6467C110.461 26.8601 110.461 31.9958 113.187 35.1519C114.736 37.0168 117.233 38.0497 119.643 37.7915C121.909 37.5619 124.004 36.1274 125.123 34.1477C127.016 30.7908 126.701 26.2289 124.147 23.3024C122.569 21.4948 120.044 20.6054 117.663 21.0357Z" fill="#196246"/>
    <path d="M149.625 18.8264C153.068 15.6129 158.376 14.5227 162.794 16.2155C166.983 17.7935 169.652 21.7816 171 25.8844C164.774 28.4666 158.577 31.0202 152.351 33.6024C153.211 35.2378 154.531 36.7297 156.31 37.3322C158.806 38.2217 161.79 37.9061 163.885 36.242C164.717 35.6108 165.377 34.7787 166.008 33.9754C167.586 35.0369 169.164 36.0698 170.742 37.1314C168.504 40.4883 164.745 42.841 160.7 43.2139C156.224 43.7591 151.461 42.0376 148.563 38.5373C143.801 33.0285 144.26 23.7899 149.625 18.8264ZM152.695 24.1342C151.719 25.5401 151.318 27.2616 151.347 28.9544C155.507 27.2329 159.667 25.5114 163.827 23.7613C163.139 22.1545 161.475 21.179 159.782 20.9208C157.056 20.4331 154.216 21.8963 152.695 24.1342Z" fill="#196246"/>
  </g>
  <defs>
    <clipPath id="clip0_43_124">
      <rect width="171" height="55.8144" fill="white"/>
    </clipPath>
  </defs>
</svg>