<svg xmlns="http://www.w3.org/2000/svg" width="130" height="44" viewBox="0 0 130 44" fill="none">
  <g clip-path="url(#clip0_19_84)">
    <path d="M102.884 2.04785H107.506V32.9749H102.884V2.04785Z" fill="#5D616A"/>
    <path d="M44.0132 12.576C38.1903 12.576 33.4474 17.0017 33.4474 23.0965C33.4474 29.1535 38.1903 33.617 44.0132 33.617C49.8361 33.617 54.579 29.1535 54.579 23.0965C54.579 16.9942 49.8361 12.576 44.0132 12.576ZM44.0132 29.4707C40.8261 29.4707 38.077 26.8425 38.077 23.0965C38.077 19.3128 40.8261 16.7223 44.0132 16.7223C47.2003 16.7223 49.9493 19.3128 49.9493 23.0965C49.9493 26.8425 47.2003 29.4707 44.0132 29.4707Z" fill="#5D616A"/>
    <path d="M16.5904 15.8007V20.2642H27.2694C26.9522 22.7716 26.1139 24.6068 24.8376 25.8831C23.2818 27.4389 20.8499 29.1533 16.5904 29.1533C10.0122 29.1533 4.87661 23.8516 4.87661 17.2734C4.87661 10.6953 10.0122 5.40108 16.5904 5.40108C20.14 5.40108 22.7304 6.79827 24.6412 8.58819L27.7905 5.43884C25.117 2.88614 21.5749 0.937622 16.5904 0.937622C7.58036 0.937622 0.0128784 8.27098 0.0128784 17.281C0.0128784 26.291 7.58792 33.6243 16.5904 33.6243C21.4541 33.6243 25.117 32.0308 27.9869 29.04C30.9399 26.0871 31.8537 21.9484 31.8537 18.5951C31.8537 17.5604 31.7706 16.6013 31.612 15.8083H16.5904V15.8007Z" fill="#5D616A"/>
    <path d="M120.179 29.4708C117.83 29.4708 116.153 28.3984 115.074 26.2837L129.144 20.4608L128.668 19.2676C127.792 16.9188 125.118 12.5686 119.658 12.5686C114.235 12.5686 109.734 16.8357 109.734 23.0891C109.734 28.9875 114.197 33.6095 120.179 33.6095C125.005 33.6095 127.792 30.6566 128.947 28.9497L125.36 26.5556C124.167 28.3153 122.535 29.4708 120.179 29.4708ZM119.824 16.6393C121.659 16.6393 123.215 17.5532 123.729 18.8748L114.326 22.7794C114.205 18.7087 117.468 16.6393 119.824 16.6393Z" fill="#5D616A"/>
    <path d="M95.3089 14.9248H95.1503C94.1156 13.6862 92.1218 12.576 89.6069 12.576C84.3429 12.576 79.5244 17.1981 79.5244 23.1418C79.5244 29.0402 84.3504 33.6245 89.6069 33.6245C92.1143 33.6245 94.1081 32.5068 95.1503 31.2304H95.3089V32.7485C95.3089 36.7739 93.1565 38.9263 89.6899 38.9263C86.8578 38.9263 85.1057 36.8947 84.3882 35.1803L80.3628 36.857C81.5183 39.6438 84.5845 43.0726 89.6899 43.0726C95.1126 43.0726 99.6969 39.8855 99.6969 32.1141V13.2104H95.3089V14.9248ZM90.0071 29.4707C86.82 29.4707 84.1465 26.7972 84.1465 23.1343C84.1465 19.4261 86.82 16.7148 90.0071 16.7148C93.1565 16.7148 95.6261 19.4261 95.6261 23.1343C95.6261 26.8047 93.1565 29.4707 90.0071 29.4707Z" fill="#5D616A"/>
    <path d="M67.0479 12.576C61.225 12.576 56.4821 17.0017 56.4821 23.0965C56.4821 29.1535 61.225 33.617 67.0479 33.617C72.8708 33.617 77.6137 29.1535 77.6137 23.0965C77.6137 16.9942 72.8708 12.576 67.0479 12.576ZM67.0479 29.4707C63.8608 29.4707 61.1117 26.8425 61.1117 23.0965C61.1117 19.3128 63.8608 16.7223 67.0479 16.7223C70.235 16.7223 72.9841 19.3128 72.9841 23.0965C72.9916 26.8425 70.2426 29.4707 67.0479 29.4707Z" fill="#5D616A"/>
  </g>
  <defs>
    <clipPath id="clip0_19_84">
      <rect width="129.189" height="42.1483" fill="white" transform="translate(0 0.925903)"/>
    </clipPath>
  </defs>
</svg>