<svg width="72" height="72" viewBox="0 0 72 72" fill="none" xmlns="http://www.w3.org/2000/svg">
<rect width="72" height="72" rx="36" fill="#C8EE44"/>
<path d="M22.068 34.28H29.664L30.312 38.708H22.068V48.5H16.452V24.056H31.356L32.004 28.448H22.068V34.28ZM57.3185 36.116C57.3185 38.636 56.8505 40.832 55.9145 42.704C54.9785 44.552 53.6465 45.98 51.9185 46.988C50.1905 47.996 48.1625 48.5 45.8345 48.5H35.6825V24.02H45.9065C48.3545 24.02 50.4305 24.536 52.1345 25.568C53.8625 26.6 55.1585 28.028 56.0225 29.852C56.8865 31.652 57.3185 33.74 57.3185 36.116ZM51.4865 36.116C51.4865 33.788 51.0065 31.952 50.0465 30.608C49.0865 29.264 47.6825 28.592 45.8345 28.592H41.2985V43.964H45.5825C47.4065 43.964 48.8465 43.316 49.9025 42.02C50.9585 40.724 51.4865 38.756 51.4865 36.116Z" fill="#1B212D"/>
</svg>
