<svg xmlns="http://www.w3.org/2000/svg" width="161" height="40" viewBox="0 0 161 40" fill="none">
  <g clip-path="url(#clip0_19_111)">
    <path d="M157.86 34.2126C157.161 34.2193 156.494 34.5021 156.003 34.9991C155.513 35.4962 155.239 36.167 155.243 36.8649C155.246 37.5627 155.526 38.2309 156.021 38.7232C156.516 39.2155 157.187 39.4919 157.885 39.4919C158.584 39.4919 159.254 39.2155 159.749 38.7232C160.244 38.2309 160.524 37.5627 160.528 36.8649C160.531 36.167 160.257 35.4962 159.767 34.9991C159.277 34.5021 158.609 34.2193 157.911 34.2126H157.86ZM157.86 39.1897C157.402 39.1973 156.951 39.069 156.566 38.821C156.181 38.5731 155.878 38.2165 155.696 37.7966C155.513 37.3766 155.46 36.912 155.541 36.4616C155.623 36.0112 155.837 35.5951 156.156 35.2661C156.474 34.937 156.883 34.7098 157.331 34.613C157.779 34.5162 158.246 34.5543 158.672 34.7224C159.098 34.8905 159.465 35.1811 159.726 35.5575C159.987 35.9338 160.13 36.379 160.138 36.8368V36.8756C160.151 37.4761 159.924 38.057 159.508 38.4908C159.093 38.9245 158.521 39.1754 157.92 39.1885H157.86M147.717 33.4914H141.975V24.5089C141.975 22.3669 141.937 19.6095 138.989 19.6095C135.998 19.6095 135.541 21.9433 135.541 24.3529V33.4908H129.799V15.019H135.311V17.5434H135.388C135.94 16.6012 136.737 15.8261 137.695 15.3006C138.652 14.7752 139.735 14.5191 140.827 14.5596C146.646 14.5596 147.719 18.3835 147.719 23.3581L147.717 33.4914ZM123.32 12.4941C122.661 12.4942 122.017 12.2991 121.469 11.9334C120.921 11.5678 120.494 11.048 120.242 10.4398C119.989 9.83165 119.923 9.1624 120.052 8.51669C120.18 7.87099 120.497 7.27783 120.963 6.81224C121.429 6.34665 122.023 6.02952 122.669 5.90097C123.315 5.77242 123.985 5.83822 124.594 6.09004C125.203 6.34187 125.724 6.76841 126.09 7.31572C126.456 7.86304 126.652 8.50655 126.652 9.16488C126.652 9.602 126.566 10.0349 126.398 10.4387C126.231 10.8426 125.986 11.2096 125.676 11.5187C125.367 11.8279 125 12.0731 124.595 12.2405C124.191 12.4078 123.758 12.494 123.32 12.4941ZM126.191 33.4914H120.443V15.019H126.191V33.4914ZM150.579 0.510327H117.558C116.809 0.501878 116.087 0.791022 115.55 1.31422C115.014 1.83742 114.708 2.55187 114.699 3.30058V36.4245C114.708 37.1736 115.014 37.8885 115.55 38.4123C116.086 38.936 116.808 39.2257 117.558 39.2177H150.579C151.33 39.2271 152.055 38.9383 152.593 38.4145C153.131 37.8908 153.44 37.1751 153.45 36.4245V3.29819C153.439 2.548 153.131 1.83274 152.593 1.30955C152.054 0.786361 151.33 0.498043 150.579 0.507937M99.071 19.4775C96.2001 19.4775 94.4776 21.3924 94.4776 24.1826C94.4776 26.9729 96.1995 28.8896 99.071 28.8896C101.942 28.8896 103.669 26.9777 103.669 24.1826C103.669 21.3876 101.945 19.4775 99.071 19.4775ZM108.955 33.4807H103.669V31.031H103.59C102.927 31.922 102.067 32.6481 101.077 33.1526C100.087 33.6571 98.9934 33.9264 97.882 33.9396C92.3651 33.9396 88.7311 29.9621 88.7311 24.3374C88.7311 19.1715 91.9471 14.4281 97.2337 14.4281C99.6099 14.4281 101.829 15.0776 103.131 16.8778H103.207V6.23004H108.954L108.955 33.4807ZM81.359 22.0998C81.3699 21.6345 81.2863 21.1717 81.113 20.7397C80.9397 20.3076 80.6804 19.9151 80.3508 19.5861C80.0212 19.2571 79.6282 18.9983 79.1955 18.8255C78.7629 18.6526 78.2996 18.5693 77.8338 18.5806C76.8306 18.5183 75.843 18.8523 75.084 19.5106C74.325 20.1689 73.8553 21.0988 73.7763 22.0998H81.359ZM86.2227 30.2853C85.2686 31.4412 84.0691 32.3706 82.7111 33.0062C81.3531 33.6418 79.8705 33.9678 78.3709 33.9605C72.6291 33.9605 68.0322 30.1318 68.0322 24.203C68.0322 18.2741 72.6285 14.4472 78.3709 14.4472C83.7376 14.4472 87.1031 18.2711 87.1031 24.203V26.0014H73.7763C73.9422 27.0213 74.4715 27.947 75.2667 28.6079C76.0619 29.2687 77.0694 29.6202 78.1035 29.5976C78.9208 29.5926 79.7238 29.3834 80.4394 28.9892C81.1551 28.5949 81.7607 28.0281 82.2011 27.3403L86.2227 30.2853ZM29.1439 15.0143H34.6578V17.5386H34.7361C35.2868 16.596 36.0835 15.8206 37.0411 15.295C37.9986 14.7695 39.0811 14.5136 40.1728 14.5548C45.9953 14.5548 47.0671 18.3817 47.0671 23.3533V33.4831H41.3253V24.5023C41.3253 22.3585 41.2859 19.6029 38.3349 19.6029C35.3504 19.6029 34.8898 21.9373 34.8898 24.3464V33.4807H29.1481L29.1439 15.0143ZM49.9786 6.23183H55.7203V22.5222L62.2276 15.0041H69.2672L61.7312 23.5559L69.1087 33.492H61.8921L55.7969 24.3613H55.7215V33.4908H49.9798L49.9786 6.23183ZM20.2185 15.0125H25.9602V33.4843H20.2185V15.0125ZM23.0894 5.82913C23.7481 5.82925 24.392 6.0245 24.9397 6.39019C25.4874 6.75588 25.9142 7.27559 26.1662 7.8836C26.4182 8.49161 26.4841 9.16061 26.3555 9.80603C26.2269 10.4514 25.9096 11.0443 25.4438 11.5095C24.9779 11.9748 24.3844 12.2917 23.7384 12.42C23.0923 12.5484 22.4226 12.4824 21.814 12.2306C21.2054 11.9787 20.6852 11.5522 20.3193 11.0051C19.9533 10.4579 19.758 9.81459 19.758 9.15652C19.758 8.71951 19.8441 8.28678 20.0116 7.88304C20.179 7.47931 20.4244 7.11247 20.7337 6.80349C21.0431 6.4945 21.4104 6.24942 21.8145 6.08224C22.2187 5.91506 22.6519 5.82905 23.0894 5.82913ZM0.534531 6.23602H6.51131V27.9844H17.5761V33.4944H0.534531V6.23602ZM158.279 37.0196C158.377 37.0206 158.475 37.0014 158.565 36.9631C158.656 36.9249 158.738 36.8685 158.806 36.7974C158.873 36.7263 158.926 36.6421 158.96 36.5499C158.994 36.4576 159.008 36.3595 159.003 36.2614C159.003 35.7236 158.678 35.4667 158.012 35.4667H156.935V38.2821H157.34V37.0548H157.838L157.849 37.0698L158.621 38.2821H159.054L158.223 37.0274L158.279 37.0196ZM157.811 36.7376H157.341V35.7858H157.936C158.244 35.7858 158.594 35.836 158.594 36.2381C158.594 36.7005 158.24 36.7376 157.808 36.7376" fill="#5D616A"/>
  </g>
  <defs>
    <clipPath id="clip0_19_111">
      <rect width="160" height="39" fill="white" transform="translate(0.534546 0.5)"/>
    </clipPath>
  </defs>
</svg>