<svg xmlns="http://www.w3.org/2000/svg" width="132" height="40" viewBox="0 0 132 40" fill="none">
  <g clip-path="url(#clip0_19_139)">
    <path d="M36.6353 25.2632C34.5028 25.2632 32.5046 24.3604 30.6892 22.8906L31.1313 20.8158L31.1505 20.739C31.5441 18.5299 32.7929 14.8218 36.6353 14.8218C39.5168 14.8218 41.8607 17.1657 41.8607 20.0473C41.851 22.9193 39.5073 25.2632 36.6353 25.2632ZM36.6353 9.52927C31.7266 9.52927 27.923 12.7183 26.3766 17.963C24.0135 14.4185 22.2268 10.1633 21.1799 6.58032H15.8968V20.3258C15.8968 23.0347 13.6874 25.2437 10.9786 25.2437C8.2698 25.2437 6.06072 23.0347 6.06072 20.3258V6.58032H0.777114V20.3258C0.757894 25.9549 5.33982 30.575 10.9686 30.575C16.5977 30.575 21.1796 25.9549 21.1796 20.3258V18.0207C22.2073 20.1626 23.4656 22.3238 24.993 24.245L21.7557 39.46H27.1639L29.5075 28.4233C31.5631 29.7393 33.9262 30.5655 36.635 30.5655C42.4271 30.5655 47.1435 25.8204 47.1435 20.0281C47.1435 14.2455 42.4273 9.52927 36.6353 9.52927Z" fill="#5D616A"/>
    <path d="M63.2714 10.1249L66.6814 23.8704L70.4373 10.1249H74.9134L69.1406 29.9892H64.6642L61.12 16.1571L57.5849 29.9795H53.1088L47.3355 10.1154H51.8118L55.5675 23.8609L58.9775 10.1154H63.2711V10.1252L63.2714 10.1249ZM85.6236 9.52932C79.8123 9.52932 75.1056 14.2455 75.1056 20.0473C75.1056 25.8589 79.8218 30.5656 85.6236 30.5656C91.4352 30.5656 96.1514 25.8589 96.1514 20.0473C96.1514 14.2361 91.4352 9.52932 85.6236 9.52932ZM85.6236 26.243C82.2042 26.243 79.4377 23.4765 79.4377 20.0571C79.4377 16.6373 82.2136 13.8711 85.6236 13.8711C89.0433 13.8711 91.8096 16.6373 91.8096 20.0571C91.8096 23.4671 89.0433 26.243 85.6236 26.243ZM108.936 14.5723C105.93 14.5723 103.5 17.012 103.5 20.0089V29.9795H98.9945V10.1249H103.5V13.1794C103.5 13.1794 105.421 10.1152 109.369 10.1152H110.752V14.5723H108.936ZM124.056 19.279C127.254 17.4731 129.425 14.0438 129.425 10.1152H124.92C124.92 13.429 122.231 16.1186 118.917 16.1186H118.311V0.538452H113.807V29.9792H118.311V20.6237H118.85C119.291 20.6237 119.868 20.912 120.127 21.2672L126.524 29.9795H131.923L124.056 19.279Z" fill="#5D616A"/>
  </g>
  <defs>
    <clipPath id="clip0_19_139">
      <rect width="131.172" height="39" fill="white" transform="translate(0.775757 0.5)"/>
    </clipPath>
  </defs>
</svg>