<svg xmlns="http://www.w3.org/2000/svg" width="130" height="42" viewBox="0 0 130 42" fill="none">
  <path fill-rule="evenodd" clip-rule="evenodd" d="M23.5746 39.5399C22.3356 38.7007 21.4464 37.4018 20.9269 35.6334C20.4071 33.8648 20.1373 31.5168 20.1373 28.5791V24.5825C20.1373 21.6151 20.4371 19.2372 21.0366 17.4383C21.6361 15.64 22.5754 14.3312 23.8442 13.5117C25.1132 12.6925 26.7819 12.2729 28.85 12.2729C30.8885 12.2729 32.5171 12.6925 33.7459 13.5319C34.9749 14.371 35.8741 15.68 36.4437 17.4585C37.0133 19.2372 37.2932 21.6151 37.2932 24.5725V28.5693C37.2932 31.5067 37.0133 33.8648 36.4636 35.6432C35.9142 37.4217 35.0151 38.7307 33.766 39.5499C32.5269 40.3692 30.8384 40.7893 28.7101 40.7893C26.532 40.7988 24.8134 40.3792 23.5746 39.5399ZM30.5386 35.2237C30.8784 34.3244 31.0583 32.8555 31.0583 30.8274V22.2446C31.0583 20.2661 30.8885 18.8274 30.5386 17.9082C30.1991 16.9989 29.5895 16.5393 28.7202 16.5393C27.881 16.5393 27.2913 16.9989 26.9417 17.9082C26.6019 18.8173 26.4222 20.2661 26.4222 22.2446V30.8274C26.4222 32.8656 26.5821 34.3344 26.9118 35.2237C27.2415 36.1229 27.841 36.5725 28.7103 36.5725C29.5895 36.5725 30.189 36.1229 30.5386 35.2237ZM118.964 28.649V30.0381C118.964 31.8065 119.014 33.1253 119.124 34.0145C119.224 34.894 119.444 35.5433 119.774 35.9432C120.103 36.3427 120.613 36.5526 121.302 36.5526C122.232 36.5526 122.871 36.1929 123.211 35.4733C123.551 34.754 123.74 33.555 123.77 31.8765L129.116 32.1863C129.146 32.4259 129.156 32.7556 129.156 33.1752C129.156 35.7233 128.456 37.6215 127.067 38.8804C125.679 40.1394 123.71 40.7689 121.163 40.7689C118.105 40.7689 115.967 39.8097 114.738 37.8913C113.509 35.9729 112.9 33.0153 112.9 28.9989V24.1929C112.9 20.0564 113.539 17.0487 114.808 15.1407C116.077 13.2422 118.255 12.2928 121.343 12.2928C123.471 12.2928 125.099 12.6827 126.238 13.4619C127.377 14.2411 128.177 15.45 128.646 17.0988C129.106 18.7474 129.346 21.0257 129.346 23.9231V28.6392H118.964V28.649ZM119.754 17.0588C119.444 17.4487 119.234 18.0879 119.124 18.9674C119.014 19.8465 118.964 21.1956 118.964 22.9838V24.9623H123.501V22.9838C123.501 21.2152 123.441 19.8764 123.321 18.9674C123.201 18.058 122.981 17.4086 122.671 17.0389C122.361 16.6692 121.872 16.4794 121.212 16.4794C120.553 16.4693 120.063 16.6692 119.754 17.0588ZM8.48717 28.1296L1.43335 2.66095H7.58788L10.0559 14.2014C10.6854 17.049 11.145 19.467 11.4448 21.4752H11.6245C11.8344 20.0363 12.294 17.6284 13.0135 14.2411L15.5712 2.65088H21.726L14.5921 28.1296V40.3493H8.48717V28.1296ZM57.3062 12.8126V40.3392H52.4602L51.9206 36.9721H51.7907C50.4718 39.52 48.4936 40.789 45.8657 40.789C44.0374 40.789 42.6884 40.1895 41.8193 38.9904C40.95 37.7914 40.5203 35.9231 40.5203 33.3753V12.8126H46.7151V33.0254C46.7151 34.2544 46.845 35.1338 47.1148 35.6533C47.3846 36.1728 47.8341 36.4426 48.4636 36.4426C49.0032 36.4426 49.5227 36.2825 50.0123 35.9531C50.5018 35.6233 50.8715 35.2035 51.1114 34.6941V12.8123L57.3062 12.8126ZM89.0995 12.8126V40.3392H84.2535L83.7138 36.9721H83.584C82.2651 39.52 80.2869 40.789 77.659 40.789C75.8307 40.789 74.4817 40.1895 73.6126 38.9904C72.7433 37.7914 72.3136 35.9231 72.3136 33.3753V12.8126H78.5084V33.0254C78.5084 34.2544 78.6383 35.1338 78.9081 35.6533C79.1777 36.1728 79.6274 36.4426 80.2569 36.4426C80.7965 36.4426 81.316 36.2825 81.8055 35.9531C82.2951 35.6233 82.6648 35.2035 82.9047 34.6941V12.8123L89.0995 12.8126Z" fill="#5D616A"/>
  <path fill-rule="evenodd" clip-rule="evenodd" d="M74.1519 7.64699H67.9971V40.3393H61.9322V7.64699H55.7774V2.66129H74.1419V7.64699H74.1519ZM109.612 17.2187C109.233 15.4803 108.633 14.2213 107.794 13.4421C106.955 12.6626 105.806 12.273 104.336 12.273C103.198 12.273 102.138 12.5927 101.149 13.2423C100.16 13.8816 99.4008 14.731 98.8612 15.7801H98.8114V1.27222H92.8363V40.3494H97.9519L98.5813 37.7416H98.7115C99.1909 38.6709 99.9102 39.4003 100.869 39.9396C101.829 40.4793 102.888 40.7491 104.057 40.7491C106.155 40.7491 107.694 39.7798 108.683 37.8514C109.672 35.9232 110.162 32.9057 110.162 28.7991V24.4427C110.172 21.3653 109.982 18.9571 109.612 17.2187ZM103.927 28.4493C103.927 30.4578 103.847 32.0263 103.677 33.1654C103.517 34.3046 103.238 35.1138 102.848 35.5935C102.458 36.0729 101.939 36.3128 101.279 36.3128C100.77 36.3128 100.3 36.193 99.8604 35.9531C99.4308 35.7133 99.0711 35.3536 98.8013 34.8739V19.2372C99.0112 18.4877 99.3709 17.8784 99.8805 17.3989C100.39 16.9192 100.939 16.6793 101.539 16.6793C102.168 16.6793 102.658 16.929 102.998 17.4185C103.337 17.9083 103.577 18.7475 103.717 19.9065C103.847 21.0756 103.917 22.7342 103.917 24.8922V28.4493H103.927Z" fill="#5D616A"/>
</svg>