<svg xmlns="http://www.w3.org/2000/svg" width="138" height="139" viewBox="0 0 138 139" fill="none">
  <rect width="138" height="138" rx="10.3125" transform="matrix(-1 0 0 1 138 0.5)" fill="#E8F8B2"/>
  <path d="M70.9843 92.9397L57.2385 92.6902C52.788 92.6033 48.3263 92.7768 43.963 91.876C37.3254 90.5302 36.8551 83.9312 36.3631 78.3959C35.6851 70.6139 35.9476 62.6907 37.227 54.9737C37.9493 50.6436 40.7918 48.0599 45.1877 47.7787C60.027 46.7583 74.965 46.8792 89.7715 47.3553C91.3352 47.3989 92.9097 47.6375 94.4516 47.909C102.063 49.2332 102.249 56.7113 102.742 63.0065C103.234 69.3667 103.026 75.7595 102.086 82.0763C101.331 87.3065 99.8877 91.6925 93.7955 92.1159C86.1623 92.6696 78.7044 93.1153 71.0498 92.9734C71.0501 92.9397 71.0062 92.9397 70.9843 92.9397ZM62.9031 79.6984C68.6553 76.4204 74.2978 73.197 80.0171 69.941C74.2542 66.663 68.6224 63.4396 62.9031 60.1835V79.6984Z" fill="#196246"/>
</svg>