<?xml version="1.0" encoding="utf-8"?>
<!-- Generator: Adobe Illustrator 25.0.0, SVG Export Plug-In . SVG Version: 6.00 Build 0)  -->
<svg version="1.1" id="Layer_1" xmlns="http://www.w3.org/2000/svg" xmlns:xlink="http://www.w3.org/1999/xlink" x="0px" y="0px"
	 viewBox="0 0 90 90" style="enable-background:new 0 0 90 90;" xml:space="preserve">
<style type="text/css">
	.st0{fill:#FAFBFB;}
	.st1{fill:#FF0000;}
</style>
<g id="Group_1">
	<circle id="Ellipse_4" class="st0" cx="45" cy="45" r="45"/>
	<path id="Vector" class="st1" d="M46.2,64.3l-11.5-0.2c-3.7-0.1-7.4,0.1-11.1-0.7c-5.5-1.1-5.9-6.7-6.3-11.3
		C16.8,45.5,17,38.9,18,32.4c0.6-3.6,3-5.8,6.6-6c12.4-0.9,24.8-0.8,37.2-0.4c1.3,0,2.6,0.2,3.9,0.5c6.3,1.1,6.5,7.4,6.9,12.7
		c0.4,5.3,0.2,10.7-0.5,16c-0.6,4.4-1.8,8.1-6.9,8.4C58.9,64,52.6,64.4,46.2,64.3C46.3,64.3,46.2,64.3,46.2,64.3z M39.5,53.1
		c4.8-2.8,9.5-5.5,14.3-8.2c-4.8-2.8-9.5-5.5-14.3-8.2V53.1z"/>
</g>
</svg>
